<svg id="visual" viewBox="0 0 900 600" width="900" height="600" xmlns="http://www.w3.org/2000/svg" xmlns:xlink="http://www.w3.org/1999/xlink" version="1.1"><rect x="0" y="0" width="900" height="600" fill="#99b2bf"></rect><path d="M0 262L8.3 290.7C16.7 319.3 33.3 376.7 50 375.5C66.7 374.3 83.3 314.7 100 286.5C116.7 258.3 133.3 261.7 150 270.3C166.7 279 183.3 293 200 278.5C216.7 264 233.3 221 250 214.7C266.7 208.3 283.3 238.7 300 258.7C316.7 278.7 333.3 288.3 350 288C366.7 287.7 383.3 277.3 400 280C416.7 282.7 433.3 298.3 450 326.3C466.7 354.3 483.3 394.7 500 401.8C516.7 409 533.3 383 550 355.3C566.7 327.7 583.3 298.3 600 311.5C616.7 324.7 633.3 380.3 650 409.3C666.7 438.3 683.3 440.7 700 427C716.7 413.3 733.3 383.7 750 363.5C766.7 343.3 783.3 332.7 800 314.8C816.7 297 833.3 272 850 265C866.7 258 883.3 269 891.7 274.5L900 280L900 601L891.7 601C883.3 601 866.7 601 850 601C833.3 601 816.7 601 800 601C783.3 601 766.7 601 750 601C733.3 601 716.7 601 700 601C683.3 601 666.7 601 650 601C633.3 601 616.7 601 600 601C583.3 601 566.7 601 550 601C533.3 601 516.7 601 500 601C483.3 601 466.7 601 450 601C433.3 601 416.7 601 400 601C383.3 601 366.7 601 350 601C333.3 601 316.7 601 300 601C283.3 601 266.7 601 250 601C233.3 601 216.7 601 200 601C183.3 601 166.7 601 150 601C133.3 601 116.7 601 100 601C83.3 601 66.7 601 50 601C33.3 601 16.7 601 8.3 601L0 601Z" fill="#8395b0" stroke-linecap="round" stroke-linejoin="miter"></path></svg>